<svg width="94" height="94" viewBox="0 0 94 94" fill="none" xmlns="http://www.w3.org/2000/svg">
<path d="M17.3371 79.9029L10.7366 5.875H83.2634L76.6541 79.8912L46.9559 88.125L17.3371 79.9029Z" fill="#E44F26"/>
<path d="M47 81.8329L70.9994 75.1794L76.6452 11.9292H47V81.8329Z" fill="#F1662A"/>
<path d="M47 39.3829H34.9856L34.1573 30.0857H47V21.0059H24.2344L24.4518 23.444L26.6813 48.4627H47V39.3829V39.3829ZM47 62.9622L46.9589 62.9739L36.848 60.245L36.2018 53.004H27.0867L28.3586 67.2568L46.9589 72.4209L47 72.4092V62.9622Z" fill="#EBEBEB"/>
<path d="M46.9678 39.3829V48.4627H58.1479L57.0963 60.2391L46.9678 62.971V72.418L65.5827 67.2568L65.7178 65.7234L67.8505 41.821L68.0737 39.3829H46.9678V39.3829ZM46.9678 21.0059V30.0857H68.8991L69.0813 28.047L69.4955 23.444L69.7128 21.0059H46.9678V21.0059Z" fill="white"/>
</svg>
