<svg width="106" height="94" viewBox="0 0 106 94" fill="none" xmlns="http://www.w3.org/2000/svg">
<g clip-path="url(#clip0_496_10)">
<path d="M86.7813 30.4361C85.658 30.0508 84.5253 29.6938 83.3841 29.3654C83.5758 28.5821 83.7522 27.8083 83.9089 27.048C86.4807 14.5637 84.7994 4.50616 79.0568 1.19472C73.5508 -1.97984 64.5461 1.33036 55.452 9.24491C54.5558 10.0263 53.6794 10.8302 52.8238 11.6559C52.2509 11.1069 51.668 10.5685 51.0753 10.041C41.5442 1.57855 31.9908 -1.98809 26.2543 1.33283C20.7533 4.51729 19.1243 13.9721 21.4397 25.8038C21.6701 26.9756 21.9302 28.1413 22.2197 29.2999C20.8675 29.6841 19.5626 30.0931 18.3138 30.5285C7.13934 34.4245 0.00317383 40.53 0.00317383 46.8631C0.00317383 53.4039 7.66417 59.9645 19.3029 63.9426C20.2464 64.2638 21.1979 64.5614 22.1563 64.8352C21.845 66.083 21.5687 67.3393 21.3276 68.6026C19.1202 80.2289 20.844 89.4603 26.3302 92.6246C31.9966 95.8923 41.5071 92.5339 50.7673 84.4387C51.5182 83.7806 52.2526 83.1038 52.9697 82.4091C53.8963 83.3031 54.8477 84.1712 55.8227 85.0122C64.7931 92.7309 73.6522 95.8478 79.133 92.6749C84.7941 89.3976 86.6341 79.4806 84.2453 67.4152C84.0571 66.47 83.8461 65.5295 83.6125 64.5944C84.2804 64.3965 84.9359 64.1929 85.5749 63.981C97.6745 59.9723 105.547 53.4913 105.547 46.8631C105.547 40.5069 98.1804 34.3602 86.7813 30.4361V30.4361ZM84.1571 59.7015C83.5799 59.8924 82.9879 60.0767 82.3843 60.256C81.0485 56.0272 79.246 51.5309 77.0399 46.8849C79.145 42.3498 80.8782 37.9108 82.1765 33.7096C83.2563 34.0222 84.3039 34.3516 85.3139 34.6991C95.0809 38.0617 101.038 43.0326 101.038 46.8631C101.038 50.943 94.6043 56.2396 84.1571 59.7015V59.7015ZM79.8224 68.2909C80.8786 73.6258 81.0291 78.4495 80.3295 82.2207C79.7012 85.6092 78.4371 87.8681 76.8737 88.773C73.5479 90.6984 66.4348 88.1958 58.7635 81.5944C57.8566 80.8125 56.9717 80.0054 56.1096 79.1743C59.0838 75.9218 62.056 72.1408 64.9568 67.9413C70.0591 67.4886 74.8795 66.7482 79.2509 65.7377C79.4615 66.5841 79.6521 67.4355 79.8224 68.2909V68.2909ZM35.9854 88.4403C32.7358 89.5877 30.1475 89.6207 28.5829 88.7186C25.2537 86.7986 23.8697 79.3862 25.7575 69.4437C25.9819 68.2688 26.2389 67.1003 26.5281 65.9397C30.8513 66.8962 35.6366 67.5839 40.7509 67.9986C43.6715 72.1078 46.7294 75.8847 49.8112 79.192C49.1563 79.8258 48.4859 80.4433 47.8005 81.044C43.7053 84.6234 39.6019 87.1631 35.9854 88.4403V88.4403ZM20.7615 59.6763C15.615 57.9171 11.3648 55.631 8.45163 53.1363C5.83365 50.8947 4.51229 48.6688 4.51229 46.8631C4.51229 43.0198 10.2418 38.1178 19.798 34.7861C20.9578 34.3821 22.1715 34.0007 23.431 33.6429C24.752 37.9388 26.4844 42.4306 28.5751 46.9727C26.4572 51.582 24.7 56.1456 23.3663 60.4922C22.4915 60.2416 21.623 59.9696 20.7615 59.6763V59.6763ZM25.8647 24.9376C23.8812 14.8008 25.1985 7.15424 28.5136 5.23507C32.0444 3.19098 39.8522 6.10539 48.0817 13.4127C48.6183 13.8902 49.1463 14.3775 49.6653 14.8742C46.5987 18.1671 43.5689 21.9159 40.6743 26.0008C35.7104 26.4609 30.9589 27.1997 26.5903 28.1896C26.3212 27.112 26.0792 26.0278 25.8647 24.938V24.9376ZM71.3916 36.1796C70.3598 34.3973 69.2897 32.6374 68.182 30.9012C71.5495 31.3271 74.7761 31.8923 77.8059 32.5833C76.8964 35.4989 75.7626 38.5469 74.4281 41.672C73.4526 39.8212 72.4403 37.99 71.3916 36.1796V36.1796ZM52.8258 18.0966C54.9054 20.3497 56.9882 22.865 59.0368 25.5943C54.881 25.398 50.7183 25.3972 46.5624 25.5918C48.6131 22.8877 50.7137 20.3757 52.8258 18.0966ZM34.1408 36.2105C33.1053 38.0064 32.1119 39.8261 31.1613 41.6683C29.8486 38.5544 28.7251 35.4923 27.8078 32.5355C30.8191 31.8618 34.0304 31.311 37.3764 30.8929C36.2564 32.6398 35.1776 34.4127 34.1408 36.2101V36.2105ZM37.4725 63.1539C34.0155 62.768 30.756 62.2457 27.7455 61.5901C28.6773 58.5805 29.8255 55.4533 31.1666 52.2726C32.121 54.1161 33.1186 55.937 34.1586 57.7337C35.228 59.5807 36.3354 61.3898 37.4725 63.1539ZM52.9503 75.947C50.8131 73.6415 48.6816 71.0907 46.6 68.3474C48.621 68.4266 50.6811 68.467 52.7751 68.467C54.9264 68.467 57.0529 68.4187 59.1461 68.3256C57.0909 71.1184 55.0159 73.6728 52.9503 75.947ZM74.4706 52.1101C75.8814 55.3259 77.0704 58.4366 78.0145 61.3947C74.9546 62.0931 71.6506 62.6555 68.1693 63.0731C69.2848 61.3046 70.365 59.5142 71.4094 57.7027C72.4711 55.8615 73.4918 53.9968 74.4706 52.1101V52.1101ZM67.5038 55.45C65.9051 58.2273 64.2165 60.9519 62.4406 63.6194C59.2238 63.8472 55.9999 63.9604 52.7751 63.9587C49.4905 63.9587 46.2957 63.8564 43.2193 63.6569C41.3971 60.9955 39.6762 58.2662 38.0604 55.4748H38.0608C36.4526 52.6981 34.9504 49.8613 33.5575 46.9707C34.9468 44.0793 36.4445 41.2412 38.0472 38.4624L38.0468 38.4628C39.6489 35.6833 41.356 32.9657 43.1644 30.3158C46.3031 30.0783 49.5218 29.9546 52.7747 29.9546H52.7751C56.0428 29.9546 59.2656 30.0795 62.4035 30.3186C64.1937 32.9646 65.8899 35.6729 67.489 38.4385C69.0971 41.2112 70.6145 44.0354 72.0389 46.9068C70.6291 49.8074 69.1165 52.657 67.5038 55.45V55.45ZM76.8049 5.10066C80.339 7.13898 81.7135 15.3586 79.493 26.1377C79.3511 26.8254 79.192 27.5258 79.0188 28.2362C74.6396 27.2253 69.8848 26.4737 64.9065 26.0066C62.0065 21.8768 59.0014 18.1221 55.9847 14.8717C56.7753 14.1096 57.5847 13.3673 58.4122 12.6454C66.2043 5.86462 73.4869 3.18727 76.8049 5.10066V5.10066ZM52.7751 37.4383C57.9801 37.4383 62.1998 41.658 62.1998 46.8631C62.1998 52.0681 57.9801 56.2878 52.7751 56.2878C47.5701 56.2878 43.3504 52.0681 43.3504 46.8631C43.3504 41.658 47.5701 37.4383 52.7751 37.4383V37.4383Z" fill="#00D8FF"/>
</g>
<defs>
<clipPath id="clip0_496_10">
<rect width="105.55" height="94" fill="white"/>
</clipPath>
</defs>
</svg>
