<svg width="94" height="94" viewBox="0 0 94 94" fill="none" xmlns="http://www.w3.org/2000/svg">
<path d="M17.3371 79.9029L10.7395 5.875H83.2605L76.6541 79.8912L46.9559 88.125L17.3371 79.9029Z" fill="#1572B6"/>
<path d="M47 81.8329L70.9994 75.1794L76.6452 11.9292H47V81.8329Z" fill="#33A9DC"/>
<path d="M47 38.7486H59.0144L59.8427 29.4514H47V20.3716H69.7656L69.5483 22.8068L67.3187 47.8284H47V38.7486V38.7486Z" fill="white"/>
<path d="M47.0559 62.3278L47.0148 62.3395L36.9039 59.6076L36.2576 52.3667H27.1426L28.4145 66.6224L47.0118 71.7865L47.0559 71.7748V62.3278V62.3278Z" fill="#EBEBEB"/>
<path d="M58.2417 47.4434L57.149 59.6017L47.0234 62.3335V71.7806L65.6354 66.6223L65.7735 65.0889L67.3509 47.4434H58.2417V47.4434Z" fill="white"/>
<path d="M47.0324 20.3716V29.4514H25.101L24.9189 27.4098L24.5047 22.8068L24.2874 20.3716H47.0324V20.3716ZM47.0001 38.7486V47.8284H37.0155L36.8334 45.7868L36.4222 41.1838L36.2048 38.7486H47.0001V38.7486Z" fill="#EBEBEB"/>
</svg>
