<svg width="94" height="94" viewBox="0 0 94 94" fill="none" xmlns="http://www.w3.org/2000/svg">
<g clip-path="url(#clip0_496_27)">
<path d="M92.2256 42.8113L51.1829 1.7744C50.6209 1.21218 49.9537 0.766178 49.2194 0.461887C48.485 0.157596 47.6979 0.000976563 46.903 0.000976562C46.108 0.000976563 45.3209 0.157596 44.5866 0.461887C43.8522 0.766178 43.185 1.21218 42.623 1.7744L34.1043 10.2932L44.9143 21.1032C46.1892 20.6679 47.5608 20.5998 48.8725 20.9066C50.1843 21.2135 51.3833 21.8829 52.3328 22.8386C53.2824 23.7942 53.9441 24.9976 54.2425 26.3113C54.5409 27.625 54.464 28.9961 54.0205 30.2682L64.4369 40.6904C65.978 40.1478 67.6579 40.1461 69.2 40.6857C70.7422 41.2253 72.0546 42.274 72.9212 43.659C73.7878 45.0441 74.1569 46.683 73.9678 48.3058C73.7786 49.9286 73.0424 51.4387 71.8805 52.5873C70.7043 53.7708 69.1536 54.5091 67.4934 54.6763C65.8332 54.8434 64.1664 54.429 62.7779 53.5037C61.3893 52.5785 60.365 51.1998 59.8801 49.6033C59.3951 48.0067 59.4794 46.2913 60.1188 44.75L50.4074 35.0328V60.6067C51.8835 61.3373 53.0647 62.5519 53.7539 64.0478C54.4431 65.5438 54.5988 67.2307 54.195 68.8276C53.7913 70.4244 52.8524 71.8346 51.535 72.8231C50.2175 73.8117 48.601 74.3188 46.955 74.26C45.309 74.2012 43.7328 73.5801 42.4892 72.5001C41.2456 71.4201 40.4098 69.9465 40.1209 68.3249C39.8321 66.7034 40.1078 65.0318 40.9019 63.5888C41.6961 62.1459 42.9609 61.0187 44.4854 60.3952V34.5863C43.6058 34.2259 42.8063 33.6949 42.1329 33.0241C41.4595 32.3532 40.9256 31.5557 40.5619 30.6775C40.1981 29.7994 40.0118 28.8579 40.0137 27.9073C40.0155 26.9568 40.2055 26.016 40.5726 25.1393L29.9213 14.482L1.78002 42.6233C1.21779 43.1852 0.771793 43.8524 0.467502 44.5868C0.163211 45.3212 0.0065918 46.1083 0.0065918 46.9032C0.0065918 47.6981 0.163211 48.4853 0.467502 49.2196C0.771793 49.954 1.21779 50.6212 1.78002 51.1832L42.8228 92.2259C43.3847 92.7881 44.0519 93.2341 44.7863 93.5384C45.5207 93.8427 46.3078 93.9993 47.1027 93.9993C47.8976 93.9993 48.6847 93.8427 49.4191 93.5384C50.1535 93.2341 50.8207 92.7881 51.3826 92.2259L92.2315 51.377C93.3656 50.2413 94.0025 48.702 94.0025 47.0971C94.0025 45.4922 93.3656 43.9528 92.2315 42.8172" fill="#F4511E"/>
</g>
<defs>
<clipPath id="clip0_496_27">
<rect width="94" height="94" fill="white"/>
</clipPath>
</defs>
</svg>
